<svg xmlns="http://www.w3.org/2000/svg" width="72" height="73" fill="none" viewBox="0 0 72 73"><g clip-path="url(#clip0_2374_3818)"><path stroke="#A3A3A3" stroke-linecap="round" stroke-linejoin="round" stroke-width="4.5" d="M24 27.6367H48"/><path stroke="#A3A3A3" stroke-linecap="round" stroke-linejoin="round" stroke-width="4.5" d="M24 39.6367H37.5"/><path stroke="#A3A3A3" stroke-linecap="round" stroke-linejoin="round" stroke-width="4.5" d="M30.975 59.4517L24 63.6367V54.6367H18C15.6131 54.6367 13.3239 53.6885 11.636 52.0007C9.94821 50.3129 9 48.0237 9 45.6367V21.6367C9 19.2498 9.94821 16.9606 11.636 15.2728C13.3239 13.5849 15.6131 12.6367 18 12.6367H54C56.3869 12.6367 58.6761 13.5849 60.364 15.2728C62.0518 16.9606 63 19.2498 63 21.6367V35.1367"/><path stroke="#A3A3A3" stroke-linecap="round" stroke-linejoin="round" stroke-width="4.5" d="M53.4007 63.0891L46.8847 66.5031C46.6913 66.6038 46.4738 66.6487 46.2564 66.6328C46.039 66.617 45.8302 66.5411 45.6535 66.4135C45.4767 66.2859 45.3389 66.1117 45.2554 65.9103C45.172 65.7089 45.1461 65.4883 45.1807 65.2731L46.4257 58.0401L41.1547 52.9191C40.9974 52.767 40.886 52.5737 40.8332 52.3614C40.7805 52.149 40.7885 51.9261 40.8564 51.7181C40.9243 51.51 41.0493 51.3253 41.2172 51.1849C41.385 51.0445 41.589 50.9541 41.8057 50.9241L49.0897 49.8681L52.3477 43.2891C52.4451 43.0932 52.5953 42.9283 52.7814 42.813C52.9674 42.6978 53.1819 42.6367 53.4007 42.6367C53.6195 42.6367 53.834 42.6978 54.0201 42.813C54.2061 42.9283 54.3563 43.0932 54.4537 43.2891L57.7117 49.8681L64.9957 50.9241C65.2118 50.9552 65.4149 51.0461 65.5821 51.1867C65.7492 51.3272 65.8737 51.5117 65.9414 51.7192C66.0091 51.9268 66.0174 52.1492 65.9654 52.3612C65.9133 52.5733 65.8029 52.7665 65.6467 52.9191L60.3757 58.0401L61.6177 65.2701C61.655 65.4857 61.6311 65.7074 61.5486 65.9101C61.4662 66.1128 61.3286 66.2883 61.1515 66.4167C60.9743 66.5452 60.7647 66.6213 60.5465 66.6366C60.3282 66.6518 60.11 66.6056 59.9167 66.5031L53.4007 63.0891Z"/></g><defs><clipPath id="clip0_2374_3818"><rect width="72" height="72" fill="#fff" transform="translate(0 0.636719)"/></clipPath></defs></svg>